<svg width="24" height="26" viewBox="0 0 24 26" fill="none" xmlns="http://www.w3.org/2000/svg">
<path d="M23.3538 10.4712L13.3538 1.0362C13.3489 1.03193 13.3443 1.02734 13.34 1.02245C12.9718 0.687616 12.492 0.502075 11.9944 0.502075C11.4967 0.502075 11.0169 0.687616 10.6488 1.02245L10.635 1.0362L0.64625 10.4712C0.442497 10.6586 0.279855 10.8862 0.168614 11.1396C0.057374 11.3931 -4.20536e-05 11.6669 2.31098e-08 11.9437V23.4999C2.31098e-08 24.0304 0.210714 24.5391 0.585786 24.9142C0.960859 25.2892 1.46957 25.4999 2 25.4999H8C8.53043 25.4999 9.03914 25.2892 9.41421 24.9142C9.78929 24.5391 10 24.0304 10 23.4999V17.4999H14V23.4999C14 24.0304 14.2107 24.5391 14.5858 24.9142C14.9609 25.2892 15.4696 25.4999 16 25.4999H22C22.5304 25.4999 23.0391 25.2892 23.4142 24.9142C23.7893 24.5391 24 24.0304 24 23.4999V11.9437C24 11.6669 23.9426 11.3931 23.8314 11.1396C23.7201 10.8862 23.5575 10.6586 23.3538 10.4712ZM22 23.4999H16V17.4999C16 16.9695 15.7893 16.4608 15.4142 16.0857C15.0391 15.7107 14.5304 15.4999 14 15.4999H10C9.46957 15.4999 8.96086 15.7107 8.58579 16.0857C8.21071 16.4608 8 16.9695 8 17.4999V23.4999H2V11.9437L2.01375 11.9312L12 2.49995L21.9875 11.9287L22.0012 11.9412L22 23.4999Z" fill="#94A3B8"/>
</svg>
